# xmcd CD database file
#
# Track frame offsets:
#	150
#	17166
#	49093
#	68184
#	87562
#	105156
#	117403
#	140472
#	166240
#	184149
#	210718
#
# Disc length: 3138 seconds
#
# Revision: 0
# Processed by: cddbd v1.5PL3 Copyright (c) Steve Scherf et al.
# Submitted via: CDex 1.51
#
DISCID=960c400b
DTITLE=Sidney James Wingfield [B18] - Bangin' Out The Blues
DYEAR=2002
DGENRE=Blues
TTITLE0=Tore Down
TTITLE1=A Thing For Ya Baby
TTITLE2=Further On Up The Road
TTITLE3=You Don't Have To Go
TTITLE4=All Your Love
TTITLE5=Koo Koochie Baby
TTITLE6=Fannie Mae
TTITLE7=Goin' To Chicago
TTITLE8=So Tired (Jive Love)
TTITLE9=The Bottle
TTITLE10=Cry Cry Cry
EXTD=YEAR: 2002
EXTT0=
EXTT1=
EXTT2=
EXTT3=
EXTT4=
EXTT5=
EXTT6=
EXTT7=
EXTT8=
EXTT9=
EXTT10=
PLAYORDER=
